<svg xmlns="http://www.w3.org/2000/svg" viewBox="0 0 507.15 506.79"><defs><style>.cls-1{fill:#3f3f3f;}</style></defs><path class="cls-1" d="M115,508.45a37.11,37.11,0,0,1-26.37-10.91L13.77,422.71a37.32,37.32,0,0,1,0-52.72L141,242.75c14.06-14.08,38.64-14.08,52.73,0l74.82,74.83a37.34,37.34,0,0,1,0,52.71L141.31,497.54A37,37,0,0,1,115,508.45Zm52.44-247.9a8.46,8.46,0,0,0-6.07,2.51L34.07,390.3a8.53,8.53,0,0,0-2.48,6.07,8.4,8.4,0,0,0,2.47,6l74.83,74.83a8.81,8.81,0,0,0,12.11,0L248.25,350a8.56,8.56,0,0,0,2.51-6.07,8.46,8.46,0,0,0-2.5-6l-74.83-74.83A8.41,8.41,0,0,0,167.39,260.55Z" transform="translate(-2.87 -1.66)"/><path d="M345.51,277.89A37,37,0,0,1,319.16,267l-74.83-74.83a37.35,37.35,0,0,1,0-52.71L371.57,12.19c14.08-14,38.69-14,52.73,0L499.12,87a37.34,37.34,0,0,1,0,52.74L371.87,267A37,37,0,0,1,345.51,277.89ZM397.94,30a8.46,8.46,0,0,0-6.06,2.51L264.63,159.74a8.58,8.58,0,0,0,0,12.1l74.83,74.83a8.77,8.77,0,0,0,12.1,0L478.81,119.43a8.59,8.59,0,0,0,0-12.14L404,32.5A8.42,8.42,0,0,0,397.94,30Z" transform="translate(-2.87 -1.66)"/><rect x="143.55" y="240.5" width="225.79" height="28.72" transform="translate(-107.97 254.36) rotate(-45)"/></svg>
