<svg xmlns="http://www.w3.org/2000/svg" viewBox="0 0 367 509.27"><defs><style>.cls-1{fill:#3f4040;fill-rule:evenodd;}</style></defs><path class="cls-1" d="M115.44,1.36H288.27a134.42,134.42,0,0,1,95.24,39.58l-.08.09a134.53,134.53,0,0,1,39.68,95.16v0a134.39,134.39,0,0,1-36.57,92.09c2,1.8,3.92,3.64,5.8,5.52A162.22,162.22,0,0,1,277.77,510.64H73V1.36ZM288.27,86.24H157.88v99.92H288.27a50.11,50.11,0,0,0,35.32-14.64l-.08-.09a49.84,49.84,0,0,0,14.72-35.22v0A49.66,49.66,0,0,0,323.68,101h-.17a49.81,49.81,0,0,0-35.24-14.72ZM278.76,271H157.88V425.76H277.77a77.37,77.37,0,0,0,1-154.72Z" transform="translate(-73 -1.36)"/></svg>
