<svg xmlns="http://www.w3.org/2000/svg" viewBox="0 0 397.03 507.52"><defs><style>.cls-1{fill:#3f3f3f;}</style></defs><path class="cls-1" d="M262.16,509.8a196.52,196.52,0,0,1-35-3.19c-65.1-11.79-115.87-57-129.33-115.21a133.56,133.56,0,0,1-3.5-30.4h41.15a93.35,93.35,0,0,0,2.41,21.1c9.79,42.21,47.7,75.17,96.6,84,73.89,13.33,127.18-28.63,139.89-74.91,10.3-37.51-5-87.12-74.57-121.2H58V228.85H200.27C152.74,205,115.84,171.07,123.8,108.52,133.29,33.68,202.91-1.59,266.45,2.61c60.88,3.86,126.39,44.61,126.39,125H351.71c0-54.12-44.13-81.14-87.85-83.91-43.14-2.55-92.65,18-99.24,70-6.9,54.15,39.56,75.48,116.89,104.21l8.38,3.12c6.69,2.47,13,5.09,19.09,7.81H455V270H372.43c44.51,42.07,52.35,93.05,41.62,132.09C398.7,458.07,341.88,509.8,262.16,509.8Z" transform="translate(-57.98 -2.28)"/></svg>
