<svg xmlns="http://www.w3.org/2000/svg" viewBox="0 0 507.01 408.74"><defs><style>.cls-1,.cls-2{fill:#3f3f3f;}.cls-2{fill-rule:evenodd;}</style></defs><path d="M510,459.35H3V50.63H510ZM31.67,430.68H481.33V79.3H31.67Z" transform="translate(-3 -50.63)"/><path d="M142.28,229.76a58.64,58.64,0,1,1,58.6-58.63A58.7,58.7,0,0,1,142.28,229.76Zm0-88.59a30,30,0,1,0,29.93,30A30,30,0,0,0,142.28,141.17Z" transform="translate(-3 -50.63)"/><path d="M510,459.35H269.93l-76-76L354.27,223,510,378.8ZM281.8,430.68H481.33v-40l-127.06-127L234.5,383.38Z" transform="translate(-3 -50.63)"/><path d="M156.74,305.62,286,434.87l24.51,24.5H17.33L7.18,434.87,136.44,305.62l10.15-10.14,10.15,10.14ZM241.2,430.67l-94.61-94.6L52,430.67Z" transform="translate(-3 -50.63)"/></svg>
