<svg height="512" viewBox="0 0 60 60" width="512" xmlns="http://www.w3.org/2000/svg">
    <path d="m59.0752 28.5054c-3.7664123-1.873859-7.2507049-4.2678838-10.3506-7.1118 1.5923634-6.0211307 2.7737841-12.14349669 3.5361-18.3248.1788-1.44-.623-1.9047-.872-2.0126-.7016942-.26712004-1.4944908-.00419148-1.8975.6293-5.4726 6.5479-12.9687 5.8008-20.9053 5.0054-7.9985-.8-16.2506-1.6116-22.3684 5.4114-.85552122-1.067885-2.26533581-1.5228479-3.5837-1.1565l-.1377.0386c-1.81412367.5095218-2.87378593 2.391025-2.3691 4.2065l12.2089 43.6891c.3541969 1.2645215 1.5052141 2.1399137 2.8184 2.1435.2677318-.0003961.5341685-.0371657.792-.1093l1.0683-.2984h.001c.7485787-.2091577 1.3833789-.7071796 1.7646969-1.3844635.381318-.677284.4779045-1.478326.2685031-2.2268365l-3.7812-13.5327c5.5066-7.0807 13.18-6.3309 21.2988-5.52 8.1094.81 16.4863 1.646 22.64-5.7129l.0029-.0039c.6044387-.7534187.8533533-1.7315007.6826-2.6822-.0899994-.4592259-.3932698-.8481635-.8167-1.0474zm-42.0381 29.7446c-.1201754.2157725-.3219209.3742868-.56.44l-1.0684.2983c-.4949157.1376357-1.0078362-.1513714-1.1465-.646l-12.2095-43.6895c-.20840349-.7523825.23089143-1.5316224.9825-1.7428l.1367-.0381c.12366014-.0348192.25153137-.0524183.38-.0523.63429117.0010181 1.19083557.4229483 1.3631 1.0334l.1083.3876v.0021l6.2529 22.3755 5.8468 20.9238c.0669515.2380103.0360256.4929057-.0859.708zm40.6329-27.2925c-5.4736 6.5459-12.9707 5.7974-20.9043 5.0039-7.9033-.79-16.06-1.605-22.1552 5.1558l-5.463-19.548-2.0643-7.3873c5.5068-7.0794 13.1796-6.3119 21.3045-5.5007 7.7148.7695 15.6787 1.5664 21.7373-4.7095-.7467138 5.70010904-1.859683 11.3462228-3.332 16.9033-.1993066.7185155.0267229 1.4878686.583 1.9844 3.1786296 2.9100325 6.7366511 5.3762694 10.5771 7.3315-.0213812.2768572-.1194065.5422977-.2831.7666z"/>
</svg>
