<svg id="Capa_1" enable-background="new 0 0 512 512" height="512" viewBox="0 0 512 512" width="512" xmlns="http://www.w3.org/2000/svg"><g><path d="m120.126 272.042v-112.021c-4.879.773-9.879 1.18-14.973 1.18-5.09 0-10.087-.406-14.964-1.178v112.03c4.917-.545 9.909-.834 14.968-.834 5.039-.001 10.033.283 14.969.823z"/><path d="m210.678 321.951 110.942-110.943c-8.115-5.903-15.265-13.053-21.168-21.168l-110.941 110.941c3.876 3.112 7.611 6.446 11.175 10.012 3.559 3.56 6.886 7.288 9.992 11.158z"/><path d="m352.519 391.336-113.101.006c.541 4.938.825 9.932.825 14.971 0 5.059-.289 10.05-.833 14.966l113.108-.006c-.773-4.877-1.178-9.874-1.178-14.965-.001-5.093.405-10.093 1.179-14.972z"/><circle cx="105.153" cy="65.901" r="65.362"/><circle cx="377.557" cy="133.903" r="65.362"/><circle cx="446.638" cy="406.308" r="65.362"/><path d="m210.306 406.312c0-28.09-10.938-54.498-30.795-74.357-19.85-19.862-46.256-30.801-74.353-30.801-57.984.001-105.158 47.174-105.158 105.158 0 57.979 47.174 105.148 105.158 105.148 57.979.001 105.148-47.168 105.148-105.148z"/></g></svg>