<svg xmlns="http://www.w3.org/2000/svg" version="1.1" width="512" height="512" x="0" y="0" viewBox="0 0 512.001 512.001" style="enable-background:new 0 0 512 512" xml:space="preserve">
		<path d="M507.606,145.569L366.43,4.395c-2.812-2.814-6.628-4.394-10.606-4.394H156.18c-3.978,0-7.793,1.58-10.606,4.394    L4.394,145.569C1.581,148.383,0,152.198,0,156.176v199.65c0,3.978,1.581,7.794,4.394,10.606l141.18,141.174    c2.813,2.813,6.628,4.394,10.606,4.394h199.644c3.979,0,7.794-1.58,10.607-4.394l141.176-141.174    c2.813-2.813,4.394-6.628,4.394-10.606v-199.65C512,152.198,510.42,148.383,507.606,145.569z M482,349.613L349.611,482.001    H162.393L30,349.613V162.389L162.393,30.001h187.218L482,162.389V349.613z" fill="#3f3f3f"/>
		<path d="M266.609,373.929c-2.79-2.789-6.659-4.4-10.609-4.4s-7.82,1.61-10.61,4.4c-2.79,2.79-4.39,6.65-4.39,10.6    s1.6,7.82,4.39,10.61c2.8,2.79,6.66,4.39,10.61,4.39s7.81-1.6,10.609-4.39c2.79-2.79,4.391-6.66,4.391-10.61    C271,380.58,269.399,376.72,266.609,373.929z" fill="#3f3f3f"/>
		<path d="M256,112.467c-8.284,0-15,6.716-15,15v160.666c0,8.284,6.716,15,15,15c8.285,0,15-6.716,15-15V127.467    C271,119.184,264.285,112.467,256,112.467z" fill="#3f3f3f"/>
</svg>
