<svg xmlns="http://www.w3.org/2000/svg" viewBox="0 0 508.68 468"><defs><style>.cls-1,.cls-2{fill:#fcfcfc;}.cls-2{fill-rule:evenodd;}</style></defs><path class="cls-1" d="M440.41,22H71.59A70,70,0,0,0,1.66,91.93V317.64a70,70,0,0,0,69.68,69.94V490l147.2-102.42H440.41a70,70,0,0,0,69.93-69.94V91.93A70,70,0,0,0,440.41,22Zm40.13,295.64a40.17,40.17,0,0,1-40.13,40.13H209.19L101.15,433V357.77H71.59a40.17,40.17,0,0,1-40.13-40.13V91.93A40.16,40.16,0,0,1,71.59,51.81H440.41a40.16,40.16,0,0,1,40.13,40.12Z" transform="translate(-1.66 -22)"/><path id="_..." data-name=" ..." class="cls-2" d="M151.26,232.4a34.78,34.78,0,0,0,12-11.91A32.47,32.47,0,0,0,168,203.85a33.41,33.41,0,0,0-33-32.68,32.17,32.17,0,0,0-23.38,9.59,30.72,30.72,0,0,0-9.6,23.09,31.06,31.06,0,0,0,9.6,23.38,32.18,32.18,0,0,0,23.38,9.6A31.27,31.27,0,0,0,151.26,232.4Zm120.51,0a34.61,34.61,0,0,0,12-11.91,32.48,32.48,0,0,0,4.73-16.64,33.42,33.42,0,0,0-33-32.68,32.18,32.18,0,0,0-23.39,9.59,32.94,32.94,0,0,0,0,46.47,32.19,32.19,0,0,0,23.39,9.6,31.25,31.25,0,0,0,16.23-4.43Zm120.51,0a34.61,34.61,0,0,0,12-11.91A32.38,32.38,0,0,0,409,203.85a33.41,33.41,0,0,0-33-32.68,32.16,32.16,0,0,0-23.38,9.59,30.72,30.72,0,0,0-9.6,23.09,31.06,31.06,0,0,0,9.6,23.38,32.17,32.17,0,0,0,23.38,9.6,31.22,31.22,0,0,0,16.23-4.43Z" transform="translate(-1.66 -22)"/></svg>
