<svg id="Layer_1" data-name="Layer 1" xmlns="http://www.w3.org/2000/svg" viewBox="0 0 508.68 468"><defs><style>.cls-1,.cls-2{fill:#3f3f3f;}.cls-2{fill-rule:evenodd;}</style></defs><path class="cls-1" d="M438.75,0H69.93A70,70,0,0,0,0,69.93V295.64a70,70,0,0,0,69.68,69.94V468l147.2-102.42H438.75a70,70,0,0,0,69.93-69.94V69.93A70,70,0,0,0,438.75,0Zm40.13,295.64a40.17,40.17,0,0,1-40.13,40.13H207.53L99.49,411V335.77H69.93A40.17,40.17,0,0,1,29.8,295.64V69.93A40.16,40.16,0,0,1,69.93,29.81H438.75a40.16,40.16,0,0,1,40.13,40.12Z"/><path id="_..." data-name=" ..." class="cls-2" d="M162.27,207a30.59,30.59,0,0,0,10.54-10.46A28.58,28.58,0,0,0,177,181.87a29.34,29.34,0,0,0-29-28.71,28.26,28.26,0,0,0-20.53,8.42A27,27,0,0,0,119,181.87a27.27,27.27,0,0,0,8.44,20.54A28.24,28.24,0,0,0,148,210.84,27.54,27.54,0,0,0,162.27,207Zm105.86,0a30.33,30.33,0,0,0,10.54-10.46,28.48,28.48,0,0,0,4.16-14.62,29.36,29.36,0,0,0-29-28.71,28.31,28.31,0,0,0-20.55,8.42,29,29,0,0,0,0,40.83,28.32,28.32,0,0,0,20.55,8.43A27.53,27.53,0,0,0,268.1,207ZM374,207a30.42,30.42,0,0,0,10.54-10.46,28.47,28.47,0,0,0,4.15-14.62,29.36,29.36,0,0,0-29-28.71,28.27,28.27,0,0,0-20.54,8.42,27,27,0,0,0-8.44,20.29,27.31,27.31,0,0,0,8.44,20.54,28.28,28.28,0,0,0,20.54,8.43A27.37,27.37,0,0,0,374,207Z"/></svg>