<svg xmlns="http://www.w3.org/2000/svg" viewBox="0 0 508.68 468"><defs><style>.cls-2{fill:#3f3f3f;}.cls-2{fill-rule:evenodd;}</style></defs><path class="cls-2" d="M162.27,207a30.59,30.59,0,0,0,10.54-10.46A28.58,28.58,0,0,0,177,181.87a29.34,29.34,0,0,0-29-28.71,28.26,28.26,0,0,0-20.53,8.42A27,27,0,0,0,119,181.87a27.27,27.27,0,0,0,8.44,20.54A28.24,28.24,0,0,0,148,210.84,27.54,27.54,0,0,0,162.27,207Zm105.86,0a30.33,30.33,0,0,0,10.54-10.46,28.48,28.48,0,0,0,4.16-14.62,29.36,29.36,0,0,0-29-28.71,28.31,28.31,0,0,0-20.55,8.42,29,29,0,0,0,0,40.83,28.32,28.32,0,0,0,20.55,8.43A27.53,27.53,0,0,0,268.1,207ZM374,207a30.42,30.42,0,0,0,10.54-10.46,28.47,28.47,0,0,0,4.15-14.62,29.36,29.36,0,0,0-29-28.71,28.27,28.27,0,0,0-20.54,8.42,27,27,0,0,0-8.44,20.29,27.31,27.31,0,0,0,8.44,20.54,28.28,28.28,0,0,0,20.54,8.43A27.37,27.37,0,0,0,374,207Z"/></svg>
