<svg xmlns="http://www.w3.org/2000/svg" viewBox="0 0 511.9 512"><defs><style>.cls-1{fill:#3f3f3f;}</style></defs><rect class="cls-1" x="278.84" y="-62.51" width="44.3" height="548.19" transform="translate(-62.01 275.8) rotate(-45)"/><path d="M330.85-1,320.25,9.6a75.06,75.06,0,0,0-11,92l-109.2,70.6a105.2,105.2,0,0,0-148.5,0L41,182.8l133.3,133.3L.55,489.8,21.75,511l173.6-173.6,133.3,133.3,10.6-10.6a105.2,105.2,0,0,0,0-148.5l-1.9-1.9,72.5-107.3a75.19,75.19,0,0,0,92-11l10.6-10.6Zm-3.2,428.1L84.45,183.9a75.21,75.21,0,0,1,94.4,9.5l139.3,139.3A75.22,75.22,0,0,1,327.65,427.1Zm-11.8-139-92.4-92.4L329,124.4l58.2,58.2-33.8,50.1-25.3,37.5Zm101.2-118-75.7-75.7a45.05,45.05,0,0,1-8.8-51.2l135.7,135.7a45.08,45.08,0,0,1-51.2-8.8Zm-217,2.1h0l18.3-11.9,23.2,23.2-18,12.2Zm149.6,119.5-12.2,18-21.6-21.6,12.1-18Zm-75.8-167.3,21.7,22.6-16.7,11.3-22.5-22.5ZM375,254.3l-21.6-21.6,10.8-16,23,19.3Z" transform="translate(-0.55 1)"/></svg>
