<svg xmlns="http://www.w3.org/2000/svg" viewBox="0 0 512 512"><defs><style>.cls-1{fill:#d6d6d6;}</style></defs><path class="cls-1" d="M507.61,145.57,366.43,4.39A15,15,0,0,0,355.82,0H156.18a15,15,0,0,0-10.61,4.39L4.39,145.57A15,15,0,0,0,0,156.18V355.83a15,15,0,0,0,4.39,10.6L145.57,507.61A15,15,0,0,0,156.18,512H355.82a15,15,0,0,0,10.61-4.39L507.61,366.43a15,15,0,0,0,4.39-10.6V156.18A15,15,0,0,0,507.61,145.57ZM482,349.61,349.61,482H162.39L30,349.61V162.39L162.39,30H349.61L482,162.39Z" transform="translate(0 0)"/><path class="cls-1" d="M266.61,373.93a15,15,0,1,0,4.39,10.6A15.12,15.12,0,0,0,266.61,373.93Z" transform="translate(0 0)"/><path class="cls-1" d="M256,112.47a15,15,0,0,0-15,15V288.13a15,15,0,0,0,30,0V127.47A15,15,0,0,0,256,112.47Z" transform="translate(0 0)"/></svg>
